<?xml version="1.0" encoding="UTF-8" standalone="no"?>
<!-- Created with Inkscape (http://www.inkscape.org/) -->

<svg
   xmlns:dc="http://purl.org/dc/elements/1.1/"
   xmlns:cc="http://creativecommons.org/ns#"
   xmlns:rdf="http://www.w3.org/1999/02/22-rdf-syntax-ns#"
   xmlns:svg="http://www.w3.org/2000/svg"
   xmlns="http://www.w3.org/2000/svg"
   xmlns:sodipodi="http://sodipodi.sourceforge.net/DTD/sodipodi-0.dtd"
   xmlns:inkscape="http://www.inkscape.org/namespaces/inkscape"
   width="64"
   height="64"
   viewBox="0 0 16.933333 16.933334"
   version="1.1"
   id="svg1304"
   inkscape:version="0.92.4 (unknown)"
   sodipodi:docname="btn_excluir.svg">
  <defs
     id="defs1298" />
  <sodipodi:namedview
     id="base"
     pagecolor="#ffffff"
     bordercolor="#666666"
     borderopacity="1.0"
     inkscape:pageopacity="0.0"
     inkscape:pageshadow="2"
     inkscape:zoom="1.979899"
     inkscape:cx="-15.105286"
     inkscape:cy="-29.22794"
     inkscape:document-units="mm"
     inkscape:current-layer="layer1"
     showgrid="false"
     units="px"
     fit-margin-top="0"
     fit-margin-left="0"
     fit-margin-right="0"
     fit-margin-bottom="0"
     inkscape:window-width="1440"
     inkscape:window-height="864"
     inkscape:window-x="0"
     inkscape:window-y="0"
     inkscape:window-maximized="1" />
  <metadata
     id="metadata1301">
    <rdf:RDF>
      <cc:Work
         rdf:about="">
        <dc:format>image/svg+xml</dc:format>
        <dc:type
           rdf:resource="http://purl.org/dc/dcmitype/StillImage" />
        <dc:title></dc:title>
      </cc:Work>
    </rdf:RDF>
  </metadata>
  <g
     inkscape:label="Camada 1"
     inkscape:groupmode="layer"
     id="layer1"
     transform="translate(-99.083796,-91.760578)">
    <g
       style="fill:#767f86;fill-opacity:1"
       transform="matrix(0.0278834,0,0,0.0278834,102.71552,94.274157)"
       id="g1634">
      <path
         style="fill:#767f86;fill-opacity:1"
         inkscape:connector-curvature="0"
         d="m 232.39844,154.70312 c -5.52344,0 -10,4.47657 -10,10 v 189 c 0,5.51954 4.47656,10 10,10 5.52343,0 10,-4.48046 10,-10 v -189 c 0,-5.52343 -4.47657,-10 -10,-10 z m 0,0"
         id="path1626" />
      <path
         style="fill:#767f86;fill-opacity:1"
         inkscape:connector-curvature="0"
         d="m 114.39844,154.70312 c -5.52344,0 -10,4.47657 -10,10 v 189 c 0,5.51954 4.47656,10 10,10 5.52344,0 10,-4.48046 10,-10 v -189 c 0,-5.52343 -4.47656,-10 -10,-10 z m 0,0"
         id="path1628" />
      <path
         style="fill:#767f86;fill-opacity:1"
         inkscape:connector-curvature="0"
         d="M 28.398438,127.12109 V 373.5 c 0,14.5625 5.339843,28.23828 14.667968,38.05078 9.285156,9.83984 22.207032,15.42578 35.730469,15.44922 H 268 c 13.52734,-0.0234 26.44922,-5.60938 35.73047,-15.44922 9.32812,-9.8125 14.66797,-23.48828 14.66797,-38.05078 V 127.12109 c 18.54297,-4.92187 30.55859,-22.83593 28.07812,-41.863278 C 343.99219,66.234375 327.78516,52.003906 308.59766,52 H 257.39844 V 39.5 C 257.45703,28.988281 253.30078,18.894531 245.85937,11.46875 238.41797,4.046875 228.30859,-0.0859375 217.79687,0 H 129 C 118.48828,-0.0859375 108.37891,4.046875 100.9375,11.46875 93.496094,18.894531 89.339844,28.988281 89.398438,39.5 V 52 H 38.199219 C 19.011719,52.003906 2.804688,66.234375 0.320312,85.257812 -2.160156,104.28516 9.855469,122.19922 28.398438,127.12109 Z M 268,407 H 78.796875 C 61.699219,407 48.398438,392.3125 48.398438,373.5 V 128 H 298.39844 v 245.5 c 0,18.8125 -13.30078,33.5 -30.39844,33.5 z M 109.39844,39.5 c -0.0664,-5.207031 1.98047,-10.21875 5.67578,-13.894531 C 118.76563,21.929688 123.78906,19.910156 129,20 h 88.79687 c 5.21094,-0.08984 10.23438,1.929688 13.92579,5.605469 3.69531,3.671875 5.74218,8.6875 5.67578,13.894531 V 52 h -128 z M 38.199219,72 H 308.59766 c 9.9414,0 18,8.058594 18,18 0,9.941406 -8.0586,18 -18,18 H 38.199219 c -9.941407,0 -18,-8.058594 -18,-18 0,-9.941406 8.058593,-18 18,-18 z m 0,0"
         id="path1630" />
      <path
         style="fill:#767f86;fill-opacity:1"
         inkscape:connector-curvature="0"
         d="m 173.39844,154.70312 c -5.52344,0 -10,4.47657 -10,10 v 189 c 0,5.51954 4.47656,10 10,10 5.52343,0 10,-4.48046 10,-10 v -189 c 0,-5.52343 -4.47657,-10 -10,-10 z m 0,0"
         id="path1632" />
    </g>
  </g>
</svg>
